<svg width="313" height="270" viewBox="0 0 313 270" fill="none" xmlns="http://www.w3.org/2000/svg">
<g opacity="0.8" clip-path="url(#clip0_5333_26)">
<path d="M1106.97 236.204L1100.1 233.447L1093.22 267.09L1086.34 270.537L1079.47 234.76L1072.59 229.64L1065.71 244.41L1058.83 237.616L1051.96 209.782L1045.08 283.042L1038.2 269.06L1031.33 228.458L1024.45 241.751L1017.57 290.756L1010.7 229.738L1003.82 219.662L996.941 296.762L990.064 288.294L983.187 275.592L976.31 270.143L969.433 220.252L962.555 252.845L955.678 271.062L948.801 188.644L941.924 215.526L935.047 238.994L928.17 214.968L921.293 295.942L914.416 236.303L907.539 182.703L900.662 194.224L893.785 244.082L886.907 227.408L880.03 250.449L873.153 238.239L866.276 247.397L859.399 214.869L852.522 249.53L845.645 277.725L838.768 305.592L831.891 296.762L825.014 266.959L818.137 169.673L811.259 191.04L804.382 223.206L797.505 182.408L790.628 229.902L783.751 194.519L776.874 215.427L769.997 216.872L763.12 217.791L756.243 206.5L749.366 169.902L742.488 152.933L735.611 179.388L728.734 155.395L721.857 194.913L714.98 141.248L708.103 256.423L701.226 273.228L694.349 201.872L687.472 169.738L680.595 163.239L673.717 162.353L666.84 147.255L659.963 158.874L653.086 200.263L646.209 150.931L639.332 184.574L632.455 139.279L625.578 142.725L618.701 194.815L611.824 189.76L604.947 195.11L598.069 170.099L591.192 172.856L584.315 148.436L577.438 161.139L570.561 144.202L563.684 167.112L556.807 164.388L549.93 169.082L543.053 119.651L536.176 128.152L529.298 154.607L522.421 146.303L515.544 160.482L508.667 132.747L501.79 157.266L494.913 136.587L488.036 135.668L481.159 144.53L474.568 150.767L467.691 134.027L460.814 141.543L453.937 134.093L447.06 122.539L440.183 155.788L433.306 142.167L426.429 145.187L419.551 153.327L412.674 129.136L405.797 198.95L398.92 203.414L392.043 188.939L385.166 174.301L378.289 146.106L371.412 179.158L364.535 133.206L357.658 153.885L350.78 261.478L343.903 224.355L337.026 159.957L330.149 150.438L323.272 130.121L316.395 194.158L309.518 195.602L302.641 174.793L295.764 125.099L288.887 149.487L282.01 176.007L275.132 155.23L268.255 117.025L261.378 109.246L254.501 138.753L247.624 124.837L240.747 125.263L233.87 135.996L226.993 105.373L220.116 101.434L213.239 147.911L206.361 110.624L199.484 121.948L192.607 147.517L185.73 167.08L178.853 180.602L171.976 130.252L165.099 117.878L158.222 141.74L151.345 196.653L144.468 163.075L137.59 169.968L130.713 172.627L123.836 128.611L116.959 110.099L110.082 117.452L103.205 121.325L96.3279 102.616L89.4508 86.6966L82.5737 143.25L75.6966 204.005L68.8195 168.786L61.9424 135.012L55.0653 146.959L48.1882 103.272L41.3111 65.4603L34.434 48.3268L27.5569 56.0073L20.6798 84.6616L13.8027 98.5456L6.92565 90.2414L0.0854492 65.9526V305.592H6.92565H13.8027H20.6798H27.5569H34.434H41.3111H48.1882H55.0653H61.9424H68.8195H75.6966H82.5737H89.4508H96.3279H103.205H110.082H116.959H123.836H130.713H137.59H144.468H151.345H158.222H165.099H171.976H178.853H185.73H192.607H199.484H206.361H213.239H220.116H226.993H233.87H240.747H247.624H254.501H261.378H268.255H275.132H282.01H288.887H295.764H302.641H309.518H316.395H323.272H330.149H337.026H343.903H350.78H357.658H364.535H371.412H378.289H385.166H392.043H398.92H405.797H412.674H419.551H426.429H433.306H440.183H447.06H453.937H460.814H467.691H474.568H481.159H488.036H494.913H501.79H508.667H515.544H522.421H529.298H536.176H543.053H549.93H556.807H563.684H570.561H577.438H584.315H591.192H598.069H604.947H611.824H618.701H625.578H632.455H639.332H646.209H653.086H659.963H666.84H673.717H680.595H687.472H694.349H701.226H708.103H714.98H721.857H728.734H735.611H742.488H749.366H756.243H763.12H769.997H776.874H783.751H790.628H797.505H804.382H811.259H818.137H825.014H831.891H838.768H845.645H852.522H859.399H866.276H873.153H880.03H886.907H893.785H900.662H907.539H914.416H921.293H928.17H935.047H941.924H948.801H955.678H962.555H969.433H976.31H983.187H990.064H996.941H1003.82H1010.7H1017.57H1024.45H1031.33H1038.2H1045.08H1051.96H1058.83H1065.71H1072.59H1079.47H1086.34H1093.22H1100.1H1106.97V236.204Z" fill="url(#paint0_linear_5333_26)"/>
<path d="M838.768 305.592L845.645 277.725L852.522 249.53L859.399 214.869L866.276 247.397L873.153 238.239L880.03 250.449L886.907 227.408L893.785 244.082L900.662 194.224L907.539 182.703L914.416 236.303L921.293 295.942L928.17 214.968L935.047 238.994L941.924 215.526L948.801 188.644L955.678 271.062L962.555 252.845L969.433 220.252L976.31 270.143L983.187 275.592L990.064 288.294L996.941 296.762L1003.82 219.662L1010.7 229.738L1017.57 290.756L1024.45 241.751L1031.33 228.458L1038.2 269.06L1045.08 283.042L1051.96 209.782L1058.83 237.616L1065.71 244.41L1072.59 229.64L1079.47 234.76L1086.34 270.537L1093.22 267.09L1100.1 233.447L1106.97 236.204V305.592H1100.1H1093.22H1086.34H1079.47H1072.59H1065.71H1058.83H1051.96H1045.08H1038.2H1031.33H1024.45H1017.57H1010.7H1003.82H996.941H990.064H983.187H976.31H969.433H962.555H955.678H948.801H941.924H935.047H928.17H921.293H914.416H907.539H900.662H893.785H886.907H880.03H873.153H866.276H859.399H852.522H845.645H838.768ZM838.768 305.592L831.891 296.762L825.014 266.959L818.137 169.673L811.259 191.04L804.382 223.206L797.505 182.408L790.628 229.902L783.751 194.519L776.874 215.427L769.997 216.872L763.12 217.791L756.243 206.5L749.366 169.902L742.488 152.933L735.611 179.388L728.734 155.395L721.857 194.913L714.98 141.248L708.103 256.423L701.226 273.228L694.349 201.872L687.472 169.738L680.595 163.239L673.717 162.353L666.84 147.255L659.963 158.874L653.086 200.263L646.209 150.931L639.332 184.574L632.455 139.279L625.578 142.725L618.701 194.815L611.824 189.76L604.947 195.11L598.069 170.099L591.192 172.856L584.315 148.436L577.438 161.139L570.561 144.202L563.684 167.112L556.807 164.388L549.93 169.082L543.053 119.651L536.176 128.152L529.298 154.607L522.421 146.303L515.544 160.482L508.667 132.747L501.79 157.266L494.913 136.587L488.036 135.668L481.159 144.53L474.568 150.767L467.691 134.027L460.814 141.543L453.937 134.093L447.06 122.539L440.183 155.788L433.306 142.167L426.429 145.187L419.551 153.327L412.674 129.136L405.797 198.95L398.92 203.414L392.043 188.939L385.166 174.301L378.289 146.106L371.412 179.158L364.535 133.206L357.658 153.885L350.78 261.478L343.903 224.355L337.026 159.957L330.149 150.438L323.272 130.121L316.395 194.158L309.518 195.602L302.641 174.793L295.764 125.099L288.887 149.487L282.01 176.007L275.132 155.23L268.255 117.025L261.378 109.246L254.501 138.753L247.624 124.837L240.747 125.263L233.87 135.996L226.993 105.373L220.116 101.434L213.239 147.911L206.361 110.624L199.484 121.948L192.607 147.517L185.73 167.08L178.853 180.602L171.976 130.252L165.099 117.878L158.222 141.74L151.345 196.653L144.468 163.075L137.59 169.968L130.713 172.627L123.836 128.611L116.959 110.099L110.082 117.452L103.205 121.325L96.3279 102.616L89.4508 86.6966L82.5737 143.25L75.6966 204.005L68.8195 168.786L61.9424 135.012L55.0653 146.959L48.1882 103.272L41.3111 65.4603L34.434 48.3268L27.5569 56.0073L20.6798 84.6616L13.8027 98.5456L6.92565 90.2414L0.0854492 65.9526V305.592H6.92565H13.8027H20.6798H27.5569H34.434H41.3111H48.1882H55.0653H61.9424H68.8195H75.6966H82.5737H89.4508H96.3279H103.205H110.082H116.959H123.836H130.713H137.59H144.468H151.345H158.222H165.099H171.976H178.853H185.73H192.607H199.484H206.361H213.239H220.116H226.993H233.87H240.747H247.624H254.501H261.378H268.255H275.132H282.01H288.887H295.764H302.641H309.518H316.395H323.272H330.149H337.026H343.903H350.78H357.658H364.535H371.412H378.289H385.166H392.043H398.92H405.797H412.674H419.551H426.429H433.306H440.183H447.06H453.937H460.814H467.691H474.568H481.159H488.036H494.913H501.79H508.667H515.544H522.421H529.298H536.176H543.053H549.93H556.807H563.684H570.561H577.438H584.315H591.192H598.069H604.947H611.824H618.701H625.578H632.455H639.332H646.209H653.086H659.963H666.84H673.717H680.595H687.472H694.349H701.226H708.103H714.98H721.857H728.734H735.611H742.488H749.366H756.243H763.12H769.997H776.874H783.751H790.628H797.505H804.382H811.259H818.137H825.014H831.891H838.768Z" stroke="#646981" stroke-linejoin="round"/>
<path d="M838.768 305.592L845.645 277.725L852.522 249.53L859.399 214.869L866.276 247.397L873.153 238.239L880.03 250.449L886.907 227.408L893.785 244.082L900.662 194.224L907.539 182.703L914.416 236.303L921.293 295.942L928.17 214.968L935.047 238.994L941.924 215.526L948.801 188.644L955.678 271.062L962.555 252.845L969.433 220.252L976.31 270.143L983.187 275.592L990.064 288.294L996.941 296.762L1003.82 219.662L1010.7 229.738L1017.57 290.756L1024.45 241.751L1031.33 228.458L1038.2 269.06L1045.08 283.042L1051.96 209.782L1058.83 237.616L1065.71 244.41L1072.59 229.64L1079.47 234.76L1086.34 270.537L1093.22 267.09L1100.1 233.447L1106.97 236.204V305.592H1100.1H1093.22H1086.34H1079.47H1072.59H1065.71H1058.83H1051.96H1045.08H1038.2H1031.33H1024.45H1017.57H1010.7H1003.82H996.941H990.064H983.187H976.31H969.433H962.555H955.678H948.801H941.924H935.047H928.17H921.293H914.416H907.539H900.662H893.785H886.907H880.03H873.153H866.276H859.399H852.522H845.645H838.768ZM838.768 305.592L831.891 296.762L825.014 266.959L818.137 169.673L811.259 191.04L804.382 223.206L797.505 182.408L790.628 229.902L783.751 194.519L776.874 215.427L769.997 216.872L763.12 217.791L756.243 206.5L749.366 169.902L742.488 152.933L735.611 179.388L728.734 155.395L721.857 194.913L714.98 141.248L708.103 256.423L701.226 273.228L694.349 201.872L687.472 169.738L680.595 163.239L673.717 162.353L666.84 147.255L659.963 158.874L653.086 200.263L646.209 150.931L639.332 184.574L632.455 139.279L625.578 142.725L618.701 194.815L611.824 189.76L604.947 195.11L598.069 170.099L591.192 172.856L584.315 148.436L577.438 161.139L570.561 144.202L563.684 167.112L556.807 164.388L549.93 169.082L543.053 119.651L536.176 128.152L529.298 154.607L522.421 146.303L515.544 160.482L508.667 132.747L501.79 157.266L494.913 136.587L488.036 135.668L481.159 144.53L474.568 150.767L467.691 134.027L460.814 141.543L453.937 134.093L447.06 122.539L440.183 155.788L433.306 142.167L426.429 145.187L419.551 153.327L412.674 129.136L405.797 198.95L398.92 203.414L392.043 188.939L385.166 174.301L378.289 146.106L371.412 179.158L364.535 133.206L357.658 153.885L350.78 261.478L343.903 224.355L337.026 159.957L330.149 150.438L323.272 130.121L316.395 194.158L309.518 195.602L302.641 174.793L295.764 125.099L288.887 149.487L282.01 176.007L275.132 155.23L268.255 117.025L261.378 109.246L254.501 138.753L247.624 124.837L240.747 125.263L233.87 135.996L226.993 105.373L220.116 101.434L213.239 147.911L206.361 110.624L199.484 121.948L192.607 147.517L185.73 167.08L178.853 180.602L171.976 130.252L165.099 117.878L158.222 141.74L151.345 196.653L144.468 163.075L137.59 169.968L130.713 172.627L123.836 128.611L116.959 110.099L110.082 117.452L103.205 121.325L96.3279 102.616L89.4508 86.6966L82.5737 143.25L75.6966 204.005L68.8195 168.786L61.9424 135.012L55.0653 146.959L48.1882 103.272L41.3111 65.4603L34.434 48.3268L27.5569 56.0073L20.6798 84.6616L13.8027 98.5456L6.92565 90.2414L0.0854492 65.9526V305.592H6.92565H13.8027H20.6798H27.5569H34.434H41.3111H48.1882H55.0653H61.9424H68.8195H75.6966H82.5737H89.4508H96.3279H103.205H110.082H116.959H123.836H130.713H137.59H144.468H151.345H158.222H165.099H171.976H178.853H185.73H192.607H199.484H206.361H213.239H220.116H226.993H233.87H240.747H247.624H254.501H261.378H268.255H275.132H282.01H288.887H295.764H302.641H309.518H316.395H323.272H330.149H337.026H343.903H350.78H357.658H364.535H371.412H378.289H385.166H392.043H398.92H405.797H412.674H419.551H426.429H433.306H440.183H447.06H453.937H460.814H467.691H474.568H481.159H488.036H494.913H501.79H508.667H515.544H522.421H529.298H536.176H543.053H549.93H556.807H563.684H570.561H577.438H584.315H591.192H598.069H604.947H611.824H618.701H625.578H632.455H639.332H646.209H653.086H659.963H666.84H673.717H680.595H687.472H694.349H701.226H708.103H714.98H721.857H728.734H735.611H742.488H749.366H756.243H763.12H769.997H776.874H783.751H790.628H797.505H804.382H811.259H818.137H825.014H831.891H838.768Z" stroke="url(#paint1_linear_5333_26)" stroke-linejoin="round"/>
<path d="M1106.97 236.204L1100.1 233.447L1093.22 267.09L1086.34 270.537L1079.47 234.76L1072.59 229.64L1065.71 244.41L1058.83 237.616L1051.96 209.782L1045.08 283.042L1038.2 269.06L1031.33 228.458L1024.45 241.751L1017.57 290.756L1010.7 229.738L1003.82 219.662L996.941 296.762L990.064 288.294L983.187 275.592L976.31 270.143L969.433 220.252L962.555 252.845L955.678 271.062L948.801 188.644L941.924 215.526L935.047 238.994L928.17 214.968L921.293 295.942L914.416 236.303L907.539 182.703L900.662 194.224L893.785 244.082L886.907 227.408L880.03 250.449L873.153 238.239L866.276 247.397L859.399 214.869L852.522 249.53L845.645 277.725L838.768 305.592L831.891 296.762L825.014 266.959L818.137 169.673L811.259 191.04L804.382 223.206L797.505 182.408L790.628 229.902L783.751 194.519L776.874 215.427L769.997 216.872L763.12 217.791L756.243 206.5L749.366 169.902L742.488 152.933L735.611 179.388L728.734 155.395L721.857 194.913L714.98 141.248L708.103 256.423L701.226 273.228L694.349 201.872L687.472 169.738L680.595 163.239L673.717 162.353L666.84 147.255L659.963 158.874L653.086 200.263L646.209 150.931L639.332 184.574L632.455 139.279L625.578 142.725L618.701 194.815L611.824 189.76L604.947 195.11L598.069 170.099L591.192 172.856L584.315 148.436L577.438 161.139L570.561 144.202L563.684 167.112L556.807 164.388L549.93 169.082L543.053 119.651L536.176 128.152L529.298 154.607L522.421 146.303L515.544 160.482L508.667 132.747L501.79 157.266L494.913 136.587L488.036 135.668L481.159 144.53L474.568 150.767L467.691 134.027L460.814 141.543L453.937 134.093L447.06 122.539L440.183 155.788L433.306 142.167L426.429 145.187L419.551 153.327L412.674 129.136L405.797 198.95L398.92 203.414L392.043 188.939L385.166 174.301L378.289 146.106L371.412 179.158L364.535 133.206L357.658 153.885L350.78 261.478L343.903 224.355L337.026 159.957L330.149 150.438L323.272 130.121L316.395 194.158L309.518 195.602L302.641 174.793L295.764 125.099L288.887 149.487L282.01 176.007L275.132 155.23L268.255 117.025L261.378 109.246L254.501 138.753L247.624 124.837L240.747 125.263L233.87 135.996L226.993 105.373L220.116 101.434L213.239 147.911L206.361 110.624L199.484 121.948L192.607 147.517L185.73 167.08L178.853 180.602L171.976 130.252L165.099 117.878L158.222 141.74L151.345 196.653L144.468 163.075L137.59 169.968L130.713 172.627L123.836 128.611L116.959 110.099L110.082 117.452L103.205 121.325L96.3279 102.616L89.4508 86.6966L82.5737 143.25L75.6966 204.005L68.8195 168.786L61.9424 135.012L55.0653 146.959L48.1882 103.272L41.3111 65.4603L34.434 48.3268L27.5569 56.0073L20.6798 84.6616L13.8027 98.5456L6.92565 90.2414L0.0854492 65.9526" stroke="#646981" stroke-linecap="round" stroke-linejoin="round"/>
<path d="M1106.97 236.204L1100.1 233.447L1093.22 267.09L1086.34 270.537L1079.47 234.76L1072.59 229.64L1065.71 244.41L1058.83 237.616L1051.96 209.782L1045.08 283.042L1038.2 269.06L1031.33 228.458L1024.45 241.751L1017.57 290.756L1010.7 229.738L1003.82 219.662L996.941 296.762L990.064 288.294L983.187 275.592L976.31 270.143L969.433 220.252L962.555 252.845L955.678 271.062L948.801 188.644L941.924 215.526L935.047 238.994L928.17 214.968L921.293 295.942L914.416 236.303L907.539 182.703L900.662 194.224L893.785 244.082L886.907 227.408L880.03 250.449L873.153 238.239L866.276 247.397L859.399 214.869L852.522 249.53L845.645 277.725L838.768 305.592L831.891 296.762L825.014 266.959L818.137 169.673L811.259 191.04L804.382 223.206L797.505 182.408L790.628 229.902L783.751 194.519L776.874 215.427L769.997 216.872L763.12 217.791L756.243 206.5L749.366 169.902L742.488 152.933L735.611 179.388L728.734 155.395L721.857 194.913L714.98 141.248L708.103 256.423L701.226 273.228L694.349 201.872L687.472 169.738L680.595 163.239L673.717 162.353L666.84 147.255L659.963 158.874L653.086 200.263L646.209 150.931L639.332 184.574L632.455 139.279L625.578 142.725L618.701 194.815L611.824 189.76L604.947 195.11L598.069 170.099L591.192 172.856L584.315 148.436L577.438 161.139L570.561 144.202L563.684 167.112L556.807 164.388L549.93 169.082L543.053 119.651L536.176 128.152L529.298 154.607L522.421 146.303L515.544 160.482L508.667 132.747L501.79 157.266L494.913 136.587L488.036 135.668L481.159 144.53L474.568 150.767L467.691 134.027L460.814 141.543L453.937 134.093L447.06 122.539L440.183 155.788L433.306 142.167L426.429 145.187L419.551 153.327L412.674 129.136L405.797 198.95L398.92 203.414L392.043 188.939L385.166 174.301L378.289 146.106L371.412 179.158L364.535 133.206L357.658 153.885L350.78 261.478L343.903 224.355L337.026 159.957L330.149 150.438L323.272 130.121L316.395 194.158L309.518 195.602L302.641 174.793L295.764 125.099L288.887 149.487L282.01 176.007L275.132 155.23L268.255 117.025L261.378 109.246L254.501 138.753L247.624 124.837L240.747 125.263L233.87 135.996L226.993 105.373L220.116 101.434L213.239 147.911L206.361 110.624L199.484 121.948L192.607 147.517L185.73 167.08L178.853 180.602L171.976 130.252L165.099 117.878L158.222 141.74L151.345 196.653L144.468 163.075L137.59 169.968L130.713 172.627L123.836 128.611L116.959 110.099L110.082 117.452L103.205 121.325L96.3279 102.616L89.4508 86.6966L82.5737 143.25L75.6966 204.005L68.8195 168.786L61.9424 135.012L55.0653 146.959L48.1882 103.272L41.3111 65.4603L34.434 48.3268L27.5569 56.0073L20.6798 84.6616L13.8027 98.5456L6.92565 90.2414L0.0854492 65.9526" stroke="url(#paint2_linear_5333_26)" stroke-linecap="round" stroke-linejoin="round"/>
<path d="M50.8877 259H49.7803V251.877C49.7803 251.285 49.7985 250.724 49.835 250.195C49.7393 250.291 49.6322 250.391 49.5137 250.496C49.3952 250.601 48.8529 251.045 47.8867 251.829L47.2852 251.05L49.9307 249.006H50.8877V259ZM63.2197 251.508H64.4639L61.2305 255.124L64.7305 259H63.4043L59.9863 255.206V259H58.8516V251.508H59.9863V255.151L63.2197 251.508ZM72.2021 253.388C72.2021 253.875 72.0609 254.247 71.7783 254.502C71.5003 254.753 71.1084 254.921 70.6025 255.008V255.069C71.2406 255.156 71.7054 255.343 71.9971 255.63C72.2933 255.917 72.4414 256.313 72.4414 256.819C72.4414 257.517 72.1839 258.054 71.6689 258.433C71.1585 258.811 70.4111 259 69.4268 259H66.125V251.508H69.4131C71.2725 251.508 72.2021 252.134 72.2021 253.388ZM71.3066 256.744C71.3066 256.339 71.1517 256.045 70.8418 255.862C70.5365 255.675 70.0283 255.582 69.3174 255.582H67.2598V258.05H69.3447C70.6527 258.05 71.3066 257.615 71.3066 256.744ZM71.0947 253.497C71.0947 253.132 70.9535 252.875 70.6709 252.725C70.3929 252.57 69.9691 252.492 69.3994 252.492H67.2598V254.604H69.1807C69.8825 254.604 70.377 254.518 70.6641 254.345C70.9512 254.172 71.0947 253.889 71.0947 253.497ZM78.7031 259L78.4775 257.934H78.4229C78.0492 258.403 77.6755 258.722 77.3018 258.891C76.9326 259.055 76.4701 259.137 75.9141 259.137C75.1712 259.137 74.5879 258.945 74.1641 258.562C73.7448 258.18 73.5352 257.635 73.5352 256.929C73.5352 255.416 74.7451 254.623 77.165 254.55L78.4365 254.509V254.044C78.4365 253.456 78.3089 253.023 78.0537 252.745C77.8031 252.463 77.3997 252.321 76.8438 252.321C76.2194 252.321 75.513 252.513 74.7246 252.896L74.376 252.027C74.7451 251.827 75.1484 251.67 75.5859 251.556C76.028 251.442 76.4701 251.385 76.9121 251.385C77.8053 251.385 78.4661 251.583 78.8945 251.979C79.3275 252.376 79.5439 253.012 79.5439 253.887V259H78.7031ZM76.1396 258.2C76.846 258.2 77.3997 258.007 77.8008 257.619C78.2064 257.232 78.4092 256.689 78.4092 255.992V255.315L77.2744 255.363C76.3721 255.395 75.7204 255.536 75.3193 255.787C74.9229 256.033 74.7246 256.418 74.7246 256.942C74.7246 257.353 74.8477 257.665 75.0938 257.879C75.3444 258.093 75.693 258.2 76.1396 258.2ZM85.375 259.137C84.8874 259.137 84.4408 259.048 84.0352 258.87C83.6341 258.688 83.2969 258.41 83.0234 258.036H82.9414C82.9961 258.474 83.0234 258.888 83.0234 259.28V262.363H81.8887V251.508H82.8115L82.9688 252.533H83.0234C83.3151 252.123 83.6546 251.827 84.042 251.645C84.4294 251.462 84.8737 251.371 85.375 251.371C86.3685 251.371 87.1341 251.711 87.6719 252.39C88.2142 253.069 88.4854 254.021 88.4854 255.247C88.4854 256.478 88.2096 257.435 87.6582 258.118C87.1113 258.797 86.3503 259.137 85.375 259.137ZM85.2109 252.335C84.4453 252.335 83.8916 252.547 83.5498 252.971C83.208 253.395 83.0326 254.069 83.0234 254.994V255.247C83.0234 256.3 83.1989 257.054 83.5498 257.51C83.9007 257.961 84.4635 258.187 85.2383 258.187C85.8854 258.187 86.3913 257.924 86.7559 257.4C87.125 256.876 87.3096 256.154 87.3096 255.233C87.3096 254.299 87.125 253.584 86.7559 253.087C86.3913 252.586 85.8763 252.335 85.2109 252.335ZM95.5264 252.479H93.0928V259H91.958V252.479H89.5518V251.508H95.5264V252.479ZM101.617 259L101.392 257.934H101.337C100.963 258.403 100.59 258.722 100.216 258.891C99.8467 259.055 99.3841 259.137 98.8281 259.137C98.0853 259.137 97.502 258.945 97.0781 258.562C96.6589 258.18 96.4492 257.635 96.4492 256.929C96.4492 255.416 97.6592 254.623 100.079 254.55L101.351 254.509V254.044C101.351 253.456 101.223 253.023 100.968 252.745C100.717 252.463 100.314 252.321 99.7578 252.321C99.1335 252.321 98.4271 252.513 97.6387 252.896L97.29 252.027C97.6592 251.827 98.0625 251.67 98.5 251.556C98.9421 251.442 99.3841 251.385 99.8262 251.385C100.719 251.385 101.38 251.583 101.809 251.979C102.242 252.376 102.458 253.012 102.458 253.887V259H101.617ZM99.0537 258.2C99.7601 258.2 100.314 258.007 100.715 257.619C101.12 257.232 101.323 256.689 101.323 255.992V255.315L100.188 255.363C99.2861 255.395 98.6344 255.536 98.2334 255.787C97.8369 256.033 97.6387 256.418 97.6387 256.942C97.6387 257.353 97.7617 257.665 98.0078 257.879C98.2585 258.093 98.6071 258.2 99.0537 258.2ZM110.388 259H109.239V252.479H106.99C106.867 254.101 106.696 255.388 106.478 256.341C106.259 257.293 105.974 257.991 105.623 258.433C105.277 258.875 104.835 259.096 104.297 259.096C104.051 259.096 103.855 259.068 103.709 259.014V258.173C103.809 258.2 103.923 258.214 104.051 258.214C104.575 258.214 104.992 257.66 105.302 256.553C105.612 255.445 105.846 253.764 106.006 251.508H110.388V259Z" fill="#A1A6BE"/>
<path d="M206.253 259H199.684V258.022L202.315 255.377C203.118 254.566 203.646 253.987 203.901 253.641C204.157 253.294 204.348 252.957 204.476 252.629C204.603 252.301 204.667 251.948 204.667 251.569C204.667 251.036 204.505 250.615 204.182 250.305C203.858 249.99 203.409 249.833 202.835 249.833C202.42 249.833 202.026 249.901 201.652 250.038C201.283 250.175 200.871 250.423 200.415 250.783L199.813 250.011C200.734 249.245 201.737 248.862 202.821 248.862C203.76 248.862 204.496 249.104 205.029 249.587C205.562 250.065 205.829 250.71 205.829 251.521C205.829 252.155 205.651 252.782 205.296 253.401C204.94 254.021 204.275 254.805 203.3 255.753L201.112 257.893V257.947H206.253V259ZM216.22 251.508H217.464L214.23 255.124L217.73 259H216.404L212.986 255.206V259H211.852V251.508H212.986V255.151L216.22 251.508ZM225.202 253.388C225.202 253.875 225.061 254.247 224.778 254.502C224.5 254.753 224.108 254.921 223.603 255.008V255.069C224.241 255.156 224.705 255.343 224.997 255.63C225.293 255.917 225.441 256.313 225.441 256.819C225.441 257.517 225.184 258.054 224.669 258.433C224.159 258.811 223.411 259 222.427 259H219.125V251.508H222.413C224.272 251.508 225.202 252.134 225.202 253.388ZM224.307 256.744C224.307 256.339 224.152 256.045 223.842 255.862C223.536 255.675 223.028 255.582 222.317 255.582H220.26V258.05H222.345C223.653 258.05 224.307 257.615 224.307 256.744ZM224.095 253.497C224.095 253.132 223.953 252.875 223.671 252.725C223.393 252.57 222.969 252.492 222.399 252.492H220.26V254.604H222.181C222.882 254.604 223.377 254.518 223.664 254.345C223.951 254.172 224.095 253.889 224.095 253.497ZM231.703 259L231.478 257.934H231.423C231.049 258.403 230.675 258.722 230.302 258.891C229.933 259.055 229.47 259.137 228.914 259.137C228.171 259.137 227.588 258.945 227.164 258.562C226.745 258.18 226.535 257.635 226.535 256.929C226.535 255.416 227.745 254.623 230.165 254.55L231.437 254.509V254.044C231.437 253.456 231.309 253.023 231.054 252.745C230.803 252.463 230.4 252.321 229.844 252.321C229.219 252.321 228.513 252.513 227.725 252.896L227.376 252.027C227.745 251.827 228.148 251.67 228.586 251.556C229.028 251.442 229.47 251.385 229.912 251.385C230.805 251.385 231.466 251.583 231.895 251.979C232.327 252.376 232.544 253.012 232.544 253.887V259H231.703ZM229.14 258.2C229.846 258.2 230.4 258.007 230.801 257.619C231.206 257.232 231.409 256.689 231.409 255.992V255.315L230.274 255.363C229.372 255.395 228.72 255.536 228.319 255.787C227.923 256.033 227.725 256.418 227.725 256.942C227.725 257.353 227.848 257.665 228.094 257.879C228.344 258.093 228.693 258.2 229.14 258.2ZM238.375 259.137C237.887 259.137 237.441 259.048 237.035 258.87C236.634 258.688 236.297 258.41 236.023 258.036H235.941C235.996 258.474 236.023 258.888 236.023 259.28V262.363H234.889V251.508H235.812L235.969 252.533H236.023C236.315 252.123 236.655 251.827 237.042 251.645C237.429 251.462 237.874 251.371 238.375 251.371C239.368 251.371 240.134 251.711 240.672 252.39C241.214 253.069 241.485 254.021 241.485 255.247C241.485 256.478 241.21 257.435 240.658 258.118C240.111 258.797 239.35 259.137 238.375 259.137ZM238.211 252.335C237.445 252.335 236.892 252.547 236.55 252.971C236.208 253.395 236.033 254.069 236.023 254.994V255.247C236.023 256.3 236.199 257.054 236.55 257.51C236.901 257.961 237.464 258.187 238.238 258.187C238.885 258.187 239.391 257.924 239.756 257.4C240.125 256.876 240.31 256.154 240.31 255.233C240.31 254.299 240.125 253.584 239.756 253.087C239.391 252.586 238.876 252.335 238.211 252.335ZM248.526 252.479H246.093V259H244.958V252.479H242.552V251.508H248.526V252.479ZM254.617 259L254.392 257.934H254.337C253.963 258.403 253.59 258.722 253.216 258.891C252.847 259.055 252.384 259.137 251.828 259.137C251.085 259.137 250.502 258.945 250.078 258.562C249.659 258.18 249.449 257.635 249.449 256.929C249.449 255.416 250.659 254.623 253.079 254.55L254.351 254.509V254.044C254.351 253.456 254.223 253.023 253.968 252.745C253.717 252.463 253.314 252.321 252.758 252.321C252.133 252.321 251.427 252.513 250.639 252.896L250.29 252.027C250.659 251.827 251.062 251.67 251.5 251.556C251.942 251.442 252.384 251.385 252.826 251.385C253.719 251.385 254.38 251.583 254.809 251.979C255.242 252.376 255.458 253.012 255.458 253.887V259H254.617ZM252.054 258.2C252.76 258.2 253.314 258.007 253.715 257.619C254.12 257.232 254.323 256.689 254.323 255.992V255.315L253.188 255.363C252.286 255.395 251.634 255.536 251.233 255.787C250.837 256.033 250.639 256.418 250.639 256.942C250.639 257.353 250.762 257.665 251.008 257.879C251.258 258.093 251.607 258.2 252.054 258.2ZM263.388 259H262.239V252.479H259.99C259.867 254.101 259.696 255.388 259.478 256.341C259.259 257.293 258.974 257.991 258.623 258.433C258.277 258.875 257.835 259.096 257.297 259.096C257.051 259.096 256.855 259.068 256.709 259.014V258.173C256.809 258.2 256.923 258.214 257.051 258.214C257.575 258.214 257.992 257.66 258.302 256.553C258.612 255.445 258.846 253.764 259.006 251.508H263.388V259Z" fill="#A1A6BE"/>
</g>
<line x1="0.385803" y1="244.999" x2="312.023" y2="244.999" stroke="black"/>
<line x1="14.658" y1="61.7035" x2="14.658" y2="253.765" stroke="black"/>
<line x1="308.897" y1="61.7035" x2="308.897" y2="253.765" stroke="black"/>
<line x1="156.938" y1="61.7041" x2="156.7" y2="260.001" stroke="black"/>
<defs>
<linearGradient id="paint0_linear_5333_26" x1="553.53" y1="48.3268" x2="553.53" y2="305.592" gradientUnits="userSpaceOnUse">
<stop stop-color="#0A090A"/>
<stop offset="0.315625" stop-color="#050505" stop-opacity="0.32"/>
<stop offset="0.695833" stop-opacity="0"/>
</linearGradient>
<linearGradient id="paint1_linear_5333_26" x1="553.53" y1="48.3268" x2="590.739" y2="250.652" gradientUnits="userSpaceOnUse">
<stop stop-color="#43E9FF"/>
<stop offset="1" stop-color="#00ABAB"/>
</linearGradient>
<linearGradient id="paint2_linear_5333_26" x1="553.53" y1="48.3268" x2="590.739" y2="250.652" gradientUnits="userSpaceOnUse">
<stop stop-color="#43E9FF"/>
<stop offset="1" stop-color="#00ABAB"/>
</linearGradient>
<clipPath id="clip0_5333_26">
<rect width="294" height="273" fill="white" transform="translate(14.158)"/>
</clipPath>
</defs>
</svg>
